<svg xmlns="http://www.w3.org/2000/svg" xmlns:xlink="http://www.w3.org/1999/xlink" width="500" zoomAndPan="magnify" viewBox="0 0 375 374.999991" height="500" preserveAspectRatio="xMidYMid meet" version="1.0"><defs><clipPath id="0ceb32d165"><path d="M 26 20.980469 L 349 20.980469 L 349 301 L 26 301 Z M 26 20.980469 " clip-rule="nonzero"/></clipPath><clipPath id="55da8f5d06"><path d="M 156 96 L 307 96 L 307 353.980469 L 156 353.980469 Z M 156 96 " clip-rule="nonzero"/></clipPath></defs><g clip-path="url(#0ceb32d165)"><path fill="#ffffff" d="M 187.488281 20.980469 L 217.28125 72.554688 L 115.246094 249.210938 L 202.75 249.210938 L 173.199219 300.347656 L 26.105469 300.347656 Z M 319.980469 250.316406 L 291.089844 300.339844 L 348.875 300.339844 Z M 319.980469 250.316406 " fill-opacity="1" fill-rule="nonzero"/></g><g clip-path="url(#55da8f5d06)"><path fill="#ffffff" d="M 274.84375 172.269531 L 306.175781 226.523438 L 232.550781 353.992188 L 200.804688 300.449219 Z M 290.980469 96.671875 L 231.144531 96.671875 L 231.144531 96.636719 L 231.089844 96.46875 L 156.667969 225.261719 L 216.558594 225.261719 Z M 290.980469 96.671875 " fill-opacity="1" fill-rule="nonzero"/></g></svg>